<?xml version="1.0" encoding="utf-8"?>
<!-- Generator: Adobe Illustrator 19.2.1, SVG Export Plug-In . SVG Version: 6.00 Build 0)  -->
<svg version="1.1" id="Слой_1" xmlns="http://www.w3.org/2000/svg" xmlns:xlink="http://www.w3.org/1999/xlink" x="0px" y="0px"
	 width="183px" height="19.1px" viewBox="0 0 183 19.1" style="enable-background:new 0 0 183 19.1;" xml:space="preserve">
<path d="M31.2,6.4c0,1.8-0.5,2.6-1.9,2.6h-1.1V2.9h1.1c1.4,0,1.9,0.6,1.9,2.3V6.4z M34.9,6.2V5.3c0-3.1-1.5-4.9-5.3-4.9h-4.9v18.3
	h3.6v-7.4h1.3l2,7.4h3.7l-2.6-8.3C34.1,9.7,34.9,8.4,34.9,6.2"/>
<polygon points="48.8,0.4 45.1,0.4 41.6,9 41.6,0.4 38,0.4 38,18.7 41.6,18.7 41.6,13.4 42.9,10.5 45.1,18.7 48.9,18.7 45.5,7.6 "/>
<polygon points="54.9,0.4 51.3,0.4 51.3,18.7 59.4,18.7 59.4,15.6 54.9,15.6 "/>
<path d="M15.1,11.8c0,0,1.2-7.4,1.2-8.4h0.1c0.1,1,1.2,8.4,1.2,8.4H15.1z M14,0.4l-3.6,18.3H14l0.7-4.3H18l0.7,4.3h3.6L18.7,0.4H14z
	"/>
<path d="M6.5,6.6c0,1.8-0.6,2.6-1.8,2.6H3.6V2.9h1.1c1.3,0,1.8,0.7,1.8,2.3V6.6z M5,0.4H0v18.3h3.6v-7h1.5c3.3,0,5.1-1.8,5.1-5.1
	V5.1C10.1,2,8.4,0.4,5,0.4"/>
<path d="M175.8,11.8c0,0,1.2-7.4,1.2-8.4h0.1c0.1,1,1.2,8.4,1.2,8.4H175.8z M179.5,0.4h-4.7l-3.6,18.3h3.6l0.7-4.3h3.3l0.7,4.3h3.6
	L179.5,0.4z"/>
<path d="M123.8,13.8c0,1.6-0.7,2.5-1.9,2.5c-1.2,0-1.9-0.9-1.9-2.5V5.4c0-1.6,0.7-2.5,1.9-2.5c1.2,0,1.9,0.9,1.9,2.5V13.8z M121.9,0
	c-3.5,0-5.5,2.1-5.5,5.8v7.6c0,3.7,2.1,5.8,5.5,5.8c3.5,0,5.6-2.1,5.6-5.8V5.8C127.4,2.1,125.4,0,121.9,0"/>
<polygon points="65,10.7 69.4,10.7 69.4,7.9 65,7.9 65,3.2 69.8,3.2 69.8,0.4 61.5,0.4 61.5,18.7 70,18.7 70,15.9 65,15.9 "/>
<polygon points="147.2,10.7 151.6,10.7 151.6,7.9 147.2,7.9 147.2,3.2 151.9,3.2 151.9,0.4 143.6,0.4 143.6,18.7 152.1,18.7 
	152.1,15.9 147.2,15.9 "/>
<path d="M137.2,12.4c0,2.4-0.7,3.7-2.3,3.7h-1.1V3h1.1c1.6,0,2.3,1.1,2.3,3.5V12.4z M135,0.4h-4.8v18.3h4.8c3.9,0,5.9-2.3,5.9-6.6
	V6.7C140.9,2.6,138.8,0.4,135,0.4"/>
<path d="M110.3,6.4c0,1.8-0.5,2.6-1.9,2.6h-1.1V2.9h1.1c1.4,0,1.9,0.6,1.9,2.3V6.4z M114,6.2V5.3c0-3.1-1.5-4.9-5.3-4.9h-4.9v18.3
	h3.6v-7.4h1.3l2,7.4h3.7l-2.6-8.3C113.2,9.7,114,8.4,114,6.2"/>
<path d="M82.8,0.4h-3.7c0,0-1.6,6-1.7,6.8h-0.1c-0.1-0.9-1.7-6.8-1.7-6.8h-3.8L74.8,9l-3.2,9.7h3.8c0,0,1.8-7.4,1.9-8.1h0.1
	c0.1,1,1.9,8.1,1.9,8.1H83L79.9,9L82.8,0.4z"/>
<path d="M97.9,6.6c0,1.8-0.6,2.6-1.8,2.6h-1.1V2.9H96c1.3,0,1.8,0.7,1.8,2.3V6.6z M96.4,0.4h-5v18.3h3.6v-7h1.5
	c3.3,0,5.1-1.8,5.1-5.1V5.1C101.5,2,99.8,0.4,96.4,0.4"/>
<path d="M161.9,13.4h-0.1l-2.9-12.9h-4.6v18.3h3V9.5c0-1.5,0-3.5-0.1-5h0.1l3.2,14.1h2.6l3.2-14.1h0.1c-0.1,1.5-0.1,3.5-0.1,5v9.2
	h3.1V0.4h-4.6L161.9,13.4z"/>
</svg>
